<svg width="120" height="132" viewBox="0 0 120 132" fill="none" xmlns="http://www.w3.org/2000/svg">
<path d="M51 2.98138L6 36.7314C2.25 39.5814 0 44.0064 0 48.7314V116.231C0 124.481 6.75 131.231 15 131.231H105C113.25 131.231 120 124.481 120 116.231V48.7314C120 44.0064 117.75 39.5814 114 36.7314L69 2.98138C66.3987 1.04552 63.2426 0 60 0C56.7574 0 53.6013 1.04552 51 2.98138ZM63.75 67.4814C63.75 73.7064 58.725 78.7314 52.5 78.7314V104.981C52.5 107.081 50.85 108.731 48.75 108.731C46.65 108.731 45 107.081 45 104.981V78.7314C38.775 78.7314 33.75 73.7064 33.75 67.4814V48.7314C33.75 46.6314 35.4 44.9814 37.5 44.9814C39.6 44.9814 41.25 46.6314 41.25 48.7314V67.4814H45V48.7314C45 46.6314 46.65 44.9814 48.75 44.9814C50.85 44.9814 52.5 46.6314 52.5 48.7314V67.4814H56.25V48.7314C56.25 46.6314 57.9 44.9814 60 44.9814C62.1 44.9814 63.75 46.6314 63.75 48.7314V67.4814ZM78.75 108.731C76.65 108.731 75 107.081 75 104.981V82.4814H71.25C69.15 82.4814 67.5 80.8314 67.5 78.7314V59.9814C67.5 53.3814 71.775 47.7564 77.7 45.8064C80.025 44.9814 82.5 46.8564 82.5 49.4064V104.981C82.5 107.081 80.85 108.731 78.75 108.731Z" fill="#434459"/>
</svg>
