<svg width="120" height="126" viewBox="0 0 120 126" fill="none" xmlns="http://www.w3.org/2000/svg">
<path d="M97.013 12.0223L100.408 33.5065L119.944 43.4694L110.093 62.9499L120 82.4304L100.297 92.3933L96.9017 113.877L75.2505 110.482L59.833 125.844L44.3599 110.26L22.8757 113.822L19.4249 92.1706L0 82.2634L9.90723 62.7829L0.0556586 43.4694L19.5918 33.3952L22.987 12.0779L44.5269 15.6401L60 0L75.4174 15.4174L97.013 12.0223ZM46.0853 35.1206C43.8711 35.1206 41.7476 36.0002 40.1818 37.5659C38.6161 39.1316 37.7365 41.2551 37.7365 43.4694C37.7365 45.6836 38.6161 47.8072 40.1818 49.3729C41.7476 50.9386 43.8711 51.8182 46.0853 51.8182C48.2996 51.8182 50.4231 50.9386 51.9888 49.3729C53.5545 47.8072 54.4341 45.6836 54.4341 43.4694C54.4341 41.2551 53.5545 39.1316 51.9888 37.5659C50.4231 36.0002 48.2996 35.1206 46.0853 35.1206ZM73.9146 74.0816C71.7004 74.0816 69.5769 74.9612 68.0112 76.5269C66.4455 78.0926 65.5659 80.2161 65.5659 82.4304C65.5659 84.6446 66.4455 86.7682 68.0112 88.3339C69.5769 89.8996 71.7004 90.7792 73.9146 90.7792C76.1289 90.7792 78.2524 89.8996 79.8181 88.3339C81.3838 86.7682 82.2634 84.6446 82.2634 82.4304C82.2634 80.2161 81.3838 78.0926 79.8181 76.5269C78.2524 74.9612 76.1289 74.0816 73.9146 74.0816ZM40.0185 90.7792L87.8293 42.9684L79.9814 35.1206L32.1707 82.9313L40.0185 90.7792Z" fill="#434459"/>
</svg>
